<svg width="199" height="62" viewBox="0 0 199 62" fill="" xmlns="http://www.w3.org/2000/svg">
<path d="M44.0574 6.00615C44.0574 6.0199 44.1452 6.23308 44.2534 6.47376C44.4899 7.01703 44.8886 8.2067 45.0373 8.80498C45.1792 9.39638 45.3414 10.8336 45.3414 11.5213C45.3414 12.1402 45.1792 13.5774 45.0779 13.9144C44.6859 15.166 44.6521 15.2485 44.348 15.8536C43.8343 16.8508 43.0436 17.8204 42.2462 18.4186C41.3608 19.0857 40.2457 19.6702 39.428 19.8903C38.7927 20.0553 37.6505 20.2822 37.4208 20.2891C37.2788 20.2891 37.1639 20.3029 37.1639 20.3235C37.1639 20.3441 37.2653 20.5092 37.387 20.688C38.6913 22.5928 39.8537 25.4811 40.1308 27.5441C40.1714 27.8466 40.2322 28.1148 40.266 28.1492C40.293 28.1767 40.3944 28.1767 40.4822 28.1423C40.5701 28.1011 40.9013 27.9911 41.2189 27.8879C41.5365 27.7916 41.888 27.661 42.0096 27.606C42.1245 27.5509 42.2394 27.5097 42.2664 27.5097C42.2935 27.5097 42.6449 27.3446 43.0436 27.1383C45.6861 25.7836 47.5717 23.8994 48.8152 21.3481C49.8289 19.2645 50.1939 17.0502 49.9033 14.6502C49.6532 12.539 48.7611 10.4004 47.4162 8.70183C47.0107 8.19295 46.1389 7.34711 45.578 6.91388C45.1252 6.57004 44.0574 5.9305 44.0574 6.00615Z" fill=""/>
<path d="M5.23793 6.36376C4.52831 6.77637 4.07551 7.12708 3.40644 7.801C1.55467 9.65772 0.39901 12.0302 0.094888 14.5815C-0.30385 17.9098 0.55445 20.9218 2.66303 23.59C3.92682 25.1923 5.85969 26.6708 7.66415 27.4134C7.88717 27.5097 8.11695 27.606 8.17102 27.6404C8.22508 27.6679 8.54948 27.7779 8.88063 27.8811C9.21855 27.9842 9.54294 28.1011 9.61053 28.1355C9.79976 28.2386 9.84031 28.1699 9.88086 27.6679C9.94844 26.8427 10.4283 25.1029 10.9216 23.8994C11.3069 22.9504 12.2125 21.2794 12.672 20.6536C12.8883 20.3579 12.8748 20.2891 12.5909 20.2891C12.1043 20.2891 10.7594 19.9866 9.92817 19.684C9.35371 19.4777 8.35349 18.9069 7.80607 18.4737C6.69096 17.5866 5.92727 16.6032 5.42716 15.3998C5.29875 15.0835 5.16359 14.7603 5.1298 14.6846C4.98111 14.3476 4.79188 13.4399 4.68375 12.5597C4.56886 11.652 4.56886 11.5557 4.67699 10.5311C4.81216 9.34139 5.10952 7.95917 5.37309 7.38152C5.42716 7.26462 5.46771 7.14083 5.46771 7.10645C5.46771 7.03081 5.77859 6.26749 5.83266 6.21248C5.88672 6.15059 5.88672 6.05431 5.81914 6.05431C5.79211 6.05431 5.52853 6.19185 5.23793 6.36376Z" fill=""/>
<path d="M24.5936 12.2846C24.249 12.5734 23.3839 13.1717 21.9106 14.1413C21.5659 14.3614 21.2348 14.5815 21.1672 14.6158C20.8834 14.7809 19.3087 15.8812 18.714 16.3281C16.3553 18.1092 14.7536 19.7528 13.4763 21.7264C12.6788 22.9573 11.9489 24.5802 11.5569 25.9968C11.4758 26.2788 11.3812 26.602 11.3542 26.7189C11.3204 26.8289 11.2731 27.0627 11.2461 27.2346C11.2258 27.4066 11.1582 27.7573 11.1109 28.0255C11.0163 28.5206 10.8271 30.8587 10.8811 30.9068C10.8946 30.9206 12.841 30.9481 15.1997 30.9618L19.4912 30.9825L19.4979 29.8822C19.4979 28.7544 19.5655 28.2868 19.8155 27.5097C20.3765 25.7699 21.816 24.3808 23.6069 23.8444C24.2625 23.6519 25.6547 23.6381 26.2494 23.8169C27.4659 24.1883 28.0268 24.5252 28.8851 25.4054C29.5407 26.0794 29.7705 26.4369 30.2098 27.4753C30.399 27.9154 30.5409 28.9676 30.5409 29.9647V31.0168H31.9128C32.6698 31.0168 34.6229 30.9962 36.2517 30.9687L39.2118 30.9274L39.1712 30.3704C38.9347 27.2071 38.394 25.0822 37.2789 22.9711C35.5826 19.739 32.8455 17.1465 27.7565 13.935C26.8779 13.378 25.5871 12.4841 25.3033 12.2296C25.1411 12.0852 24.9991 11.9683 24.9856 11.9752C24.9789 11.9752 24.7964 12.1196 24.5936 12.2846Z" fill=""/>
<path d="M24.0192 26.1275C22.9244 26.5263 22.1742 27.2759 21.8295 28.3143C21.7146 28.6512 21.6943 28.9194 21.6808 29.8547L21.6741 30.9825L25.0262 31.0031L28.3783 31.0168V29.9716C28.3783 29.3939 28.3445 28.7819 28.3039 28.6169C28.0606 27.5235 27.0266 26.4301 25.925 26.1069C25.4182 25.9556 24.4652 25.9693 24.0192 26.1275Z" fill=""/>
<path d="M10.8067 32.5022C10.8 32.6122 10.6851 33.5131 10.604 34.077C10.4958 34.8609 10.1985 36.4082 9.90787 37.7216C9.74567 38.4575 9.06985 40.8368 8.91441 41.2288C8.74545 41.6551 7.95473 43.8626 7.9277 43.9795C7.90067 44.0895 8.02907 44.227 8.54946 44.6328C9.39424 45.2861 11.1244 46.6201 11.3744 46.7989C11.4825 46.8746 11.7056 47.0465 11.8813 47.184C12.1584 47.3972 13.679 48.5044 14.6454 49.192C14.8346 49.3296 15.1523 49.5565 15.3348 49.6872C16.5242 50.5399 18.8693 52.1078 20.9103 53.4212C21.1739 53.5931 21.4578 53.7788 21.5524 53.8407C21.647 53.8957 21.7686 53.9782 21.8362 54.0195C22.1944 54.2396 22.7351 54.5834 22.8702 54.6728C23.2149 54.8997 24.4719 55.6768 24.749 55.835L25.0329 56L25.8439 55.498C28.6012 53.7926 30.5949 52.5273 31.7911 51.7158C32.1628 51.4614 32.8184 51.0212 33.2442 50.7324C33.6699 50.4436 34.2376 50.0516 34.4944 49.8591C34.758 49.6734 35.0148 49.4946 35.0689 49.4671C35.123 49.4396 35.3595 49.2814 35.5893 49.1095C35.8191 48.9376 36.2651 48.6075 36.5692 48.3806C38.2047 47.1909 41.7663 44.4127 41.9894 44.1583C42.111 44.0207 42.111 44.007 41.9691 43.6563C41.5906 42.7279 41.469 42.3909 41.0567 41.1256C40.5363 39.5234 40.2728 38.5469 39.8673 36.6558C39.6105 35.4592 39.3807 34.0151 39.2793 32.9217L39.2388 32.4472L37.5762 32.4953C36.6639 32.516 35.4136 32.5641 34.7986 32.6054C34.1836 32.6397 33.5415 32.6672 33.3658 32.6672H33.0482L33.0279 37.1165L33.0009 41.5726L32.8454 42.0196C32.5683 42.7829 32.0615 43.45 31.4262 43.8901C30.5273 44.509 25.141 47.7961 25.0261 47.7961C24.918 47.7961 24.2827 47.4453 23.715 47.074C23.4717 46.9158 22.9446 46.5858 22.5323 46.3382C22.1268 46.0906 21.3361 45.6024 20.7752 45.2517C20.221 44.901 19.5181 44.4608 19.214 44.2752C18.0651 43.5669 17.4906 42.9342 17.1527 41.999L16.9973 41.5726L16.9703 37.1302L16.95 32.6879L15.3821 32.6122C12.9221 32.4885 10.8067 32.4403 10.8067 32.5022Z" fill=""/>
<path d="M24.4922 34.6546C24.4719 34.689 24.3706 34.7371 24.2692 34.7647C24.0462 34.8128 23.5123 35.3492 23.3433 35.6861C23.269 35.8305 23.2284 36.085 23.2284 36.3738C23.2217 36.9377 23.4379 37.4122 23.8434 37.7423C24.2286 38.0586 24.2219 38.1824 23.7556 40.0941C23.492 41.1738 23.4244 41.5314 23.465 41.6345C23.5055 41.7308 23.6745 41.7445 24.9991 41.7445C26.3034 41.7445 26.4927 41.7308 26.5332 41.6345C26.567 41.5314 26.3575 40.3623 26.2156 39.8534C26.0872 39.4202 25.8777 38.3749 25.8777 38.1893C25.8777 38.0449 25.9588 37.9142 26.1818 37.701C26.6076 37.2953 26.7562 36.9652 26.7562 36.4288C26.7562 35.6586 26.3507 35.0397 25.6546 34.7371C25.31 34.5859 24.5666 34.5377 24.4922 34.6546Z" fill=""/>
<path d="M197.856 41.024H193.296V32.936C193.296 32.056 193.16 31.44 192.888 31.088C192.616 30.736 192.128 30.56 191.424 30.56C190.896 30.56 190.368 30.656 189.84 30.848C189.328 31.04 188.72 31.408 188.016 31.952V39.224L190.176 40.064L189.696 41.024H183V40.28L185.136 38.6V31.808L183 30.56V29.816L187.104 27.8L187.896 30.92L191.304 28.208C191.64 28.08 192.08 28.016 192.624 28.016C193.712 28.016 194.576 28.352 195.216 29.024C195.856 29.68 196.176 30.576 196.176 31.712V39.2L198.336 40.064L197.856 41.024Z" fill=""/>
<path d="M180.597 41H176.037V38.912L173.325 41.048C173.005 41.176 172.605 41.24 172.125 41.24C170.749 41.24 169.749 40.896 169.125 40.208C168.517 39.52 168.213 38.696 168.213 37.736C168.213 37.16 168.421 36.592 168.837 36.032C169.253 35.472 169.845 34.944 170.613 34.448H176.037V32.912C176.037 31.872 175.757 31.136 175.197 30.704C174.653 30.272 173.901 30.056 172.941 30.056C171.949 30.056 170.733 30.656 169.293 31.856L168.573 30.944L172.029 28.208C172.669 28.08 173.437 28.016 174.333 28.016C175.789 28.016 176.917 28.376 177.717 29.096C178.517 29.8 178.917 30.832 178.917 32.192V39.2L181.077 40.04L180.597 41ZM172.893 39.2C173.869 39.2 174.917 38.752 176.037 37.856V35.432H171.789C171.581 35.688 171.429 35.944 171.333 36.2C171.253 36.456 171.213 36.736 171.213 37.04C171.213 37.632 171.365 38.144 171.669 38.576C171.973 38.992 172.381 39.2 172.893 39.2Z" fill=""/>
<path d="M165.461 41H158.765V40.256L160.901 38.576V31.568L158.765 30.08V29.336L162.869 27.8H163.781V39.2L165.941 40.04L165.461 41ZM162.245 20.6C162.725 20.6 163.117 20.776 163.421 21.128C163.741 21.48 163.901 21.92 163.901 22.448C163.901 22.816 163.789 23.168 163.565 23.504C163.341 23.824 163.061 24.08 162.725 24.272C162.389 24.464 162.061 24.56 161.741 24.56C161.261 24.56 160.861 24.384 160.541 24.032C160.237 23.68 160.085 23.24 160.085 22.712C160.085 22.344 160.197 22 160.421 21.68C160.645 21.344 160.925 21.08 161.261 20.888C161.597 20.696 161.925 20.6 162.245 20.6Z" fill=""/>
<path d="M156.339 41H151.779V39.272L149.547 41.048C149.035 41.176 148.419 41.24 147.699 41.24C146.643 41.24 145.691 40.968 144.843 40.424C144.011 39.864 143.355 39.112 142.875 38.168C142.411 37.224 142.179 36.184 142.179 35.048C142.179 33.816 142.555 32.664 143.307 31.592C144.059 30.504 144.995 29.64 146.115 29C147.251 28.344 148.347 28.016 149.403 28.016C150.283 28.016 151.083 28.264 151.803 28.76V23.816L149.667 22.328V21.584L153.771 20.048H154.683V39.2L156.819 40.04L156.339 41ZM148.923 39.2C149.403 39.2 149.859 39.136 150.291 39.008C150.739 38.864 151.235 38.6 151.779 38.216V32.744C151.683 31.944 151.307 31.296 150.651 30.8C150.011 30.288 149.131 30.032 148.011 30.032C146.203 30.032 145.299 31.32 145.299 33.896C145.299 35.4 145.611 36.664 146.235 37.688C146.859 38.696 147.755 39.2 148.923 39.2Z" fill=""/>
<path d="M138.062 28.04C138.59 28.04 139.054 28.184 139.454 28.472C139.854 28.76 140.166 29.16 140.39 29.672L138.806 31.664H137.894C137.83 31.264 137.71 30.984 137.534 30.824C137.374 30.648 137.15 30.56 136.862 30.56C136.51 30.56 136.134 30.656 135.734 30.848C135.35 31.024 134.91 31.368 134.414 31.88V39.032L137.774 40.064L137.294 41.024H129.398V40.28L131.534 38.6V31.808L129.398 30.56V29.816L133.502 27.8L134.246 30.752L136.742 28.208C137.078 28.08 137.518 28.016 138.062 28.016V28.04Z" fill=""/>
<path d="M126.996 41H122.436V38.912L119.724 41.048C119.404 41.176 119.004 41.24 118.524 41.24C117.148 41.24 116.148 40.896 115.524 40.208C114.916 39.52 114.612 38.696 114.612 37.736C114.612 37.16 114.82 36.592 115.236 36.032C115.652 35.472 116.244 34.944 117.012 34.448H122.436V32.912C122.436 31.872 122.156 31.136 121.596 30.704C121.052 30.272 120.3 30.056 119.34 30.056C118.348 30.056 117.132 30.656 115.692 31.856L114.972 30.944L118.428 28.208C119.068 28.08 119.836 28.016 120.732 28.016C122.188 28.016 123.316 28.376 124.116 29.096C124.916 29.8 125.316 30.832 125.316 32.192V39.2L127.476 40.04L126.996 41ZM119.292 39.2C120.268 39.2 121.316 38.752 122.436 37.856V35.432H118.188C117.98 35.688 117.828 35.944 117.732 36.2C117.652 36.456 117.612 36.736 117.612 37.04C117.612 37.632 117.764 38.144 118.068 38.576C118.372 38.992 118.78 39.2 119.292 39.2Z" fill=""/>
<path d="M110.121 29.912C110.569 30.552 110.793 31.272 110.793 32.072C110.793 32.776 110.593 33.472 110.193 34.16C109.793 34.832 109.257 35.424 108.585 35.936C107.913 36.448 107.177 36.832 106.377 37.088C105.945 37.52 105.729 37.976 105.729 38.456C105.729 38.728 105.937 38.984 106.353 39.224C106.785 39.448 107.417 39.72 108.249 40.04C109.385 40.488 110.257 40.896 110.865 41.264C111.489 41.648 111.801 42.112 111.801 42.656C111.801 43.136 111.489 43.752 110.865 44.504C110.257 45.256 109.497 45.912 108.585 46.472C107.673 47.032 106.793 47.312 105.945 47.312C105.049 47.312 103.985 47.16 102.753 46.856C101.537 46.552 100.521 46.248 99.7051 45.944V42.248H100.617C101.513 43.352 102.425 44.192 103.353 44.768C104.281 45.344 105.329 45.632 106.497 45.632C106.929 45.632 107.321 45.544 107.673 45.368C108.041 45.192 108.321 44.968 108.513 44.696C108.721 44.44 108.825 44.192 108.825 43.952C108.825 43.52 108.577 43.144 108.081 42.824C107.585 42.52 106.809 42.144 105.753 41.696C104.745 41.28 103.993 40.92 103.497 40.616C103.017 40.312 102.777 39.96 102.777 39.56C102.777 39.176 103.033 38.784 103.545 38.384C104.057 37.984 104.665 37.632 105.369 37.328C105.113 37.376 104.849 37.4 104.577 37.4C103.729 37.4 102.953 37.216 102.249 36.848C101.545 36.464 100.985 35.96 100.569 35.336C100.169 34.712 99.9691 34.032 99.9691 33.296C99.9691 32.416 100.273 31.568 100.881 30.752C101.489 29.936 102.273 29.28 103.233 28.784C104.209 28.272 105.201 28.016 106.209 28.016C107.329 28.016 108.313 28.336 109.161 28.976H112.929L112.953 29.912H110.121ZM105.969 35.336C106.689 35.336 107.233 35.16 107.601 34.808C107.985 34.44 108.177 33.904 108.177 33.2C108.177 32.24 107.865 31.464 107.241 30.872C106.633 30.28 105.825 29.984 104.817 29.984C104.113 29.984 103.569 30.16 103.185 30.512C102.817 30.848 102.633 31.368 102.633 32.072C102.633 33.048 102.937 33.84 103.545 34.448C104.169 35.04 104.977 35.336 105.969 35.336Z" fill=""/>
<path d="M93.9309 38.408C93.9309 37.96 93.6829 37.552 93.1869 37.184C92.6909 36.8 91.9309 36.344 90.9069 35.816C90.0749 35.384 89.4029 35.008 88.8909 34.688C88.3788 34.368 87.9389 34 87.5709 33.584C87.2189 33.152 87.0429 32.688 87.0429 32.192C87.0429 31.616 87.2829 31 87.7629 30.344C88.2429 29.688 88.8349 29.136 89.5389 28.688C90.2429 28.24 90.8989 28.016 91.5069 28.016C92.2429 28.016 93.0909 28.112 94.0509 28.304C95.0269 28.48 95.7308 28.68 96.1628 28.904V32.6H95.2509C94.7389 31.608 94.1469 30.84 93.4749 30.296C92.8029 29.736 92.1149 29.456 91.4109 29.456C90.9149 29.456 90.5149 29.592 90.2109 29.864C89.9069 30.12 89.7549 30.448 89.7549 30.848C89.7549 31.344 90.0108 31.792 90.5229 32.192C91.0508 32.576 91.8429 33.032 92.8989 33.56C93.7149 33.976 94.3709 34.336 94.8669 34.64C95.3629 34.944 95.7789 35.304 96.1149 35.72C96.4669 36.12 96.6429 36.568 96.6429 37.064C96.6429 37.656 96.3869 38.28 95.8749 38.936C95.3789 39.576 94.7629 40.12 94.0269 40.568C93.3069 41.016 92.6429 41.24 92.0349 41.24C91.2509 41.24 90.3149 41.152 89.2269 40.976C88.1549 40.784 87.3869 40.576 86.9229 40.352V36.656H87.8349C88.3949 37.648 89.0589 38.424 89.8269 38.984C90.5949 39.528 91.3709 39.8 92.1549 39.8C92.6829 39.8 93.1069 39.664 93.4269 39.392C93.7629 39.12 93.9309 38.792 93.9309 38.408Z" fill=""/>
<path d="M84.4 41H77.104V40.256L79.36 38.504L77.512 34.064H69.448L67.48 38.6L71.704 40.04L71.224 41H63.928V40.256L66.184 38.48L72.976 22.904L75.472 21.68L82.48 38.576L84.88 40.04L84.4 41ZM73.576 24.56L69.928 32.984H77.08L73.576 24.56Z" fill=""/>

<style>
    @media (prefers-color-scheme: light) {
      svg {
        fill: #0F172B;
      }
    }
    @media (prefers-color-scheme: dark) {
      svg {
        fill: #F9F3F4;
      }
    }
  </style>
</svg>
