<?xml version="1.0" encoding="utf-8"?>
<svg xmlns="http://www.w3.org/2000/svg" viewBox="0 6 50 50" width="50px" height="50px">
  <defs>
    <style>
    @media (prefers-color-scheme: light) {
      svg {
        fill: #0F172B;
      }
    }
    @media (prefers-color-scheme: dark) {
      svg {
        fill: #F9F3F4;
      }
    }
  </style>
  </defs>
  <path d="M44.0574 6.00615C44.0574 6.0199 44.1452 6.23308 44.2534 6.47376C44.4899 7.01703 44.8886 8.2067 45.0373 8.80498C45.1792 9.39638 45.3414 10.8336 45.3414 11.5213C45.3414 12.1402 45.1792 13.5774 45.0779 13.9144C44.6859 15.166 44.6521 15.2485 44.348 15.8536C43.8343 16.8508 43.0436 17.8204 42.2462 18.4186C41.3608 19.0857 40.2457 19.6702 39.428 19.8903C38.7927 20.0553 37.6505 20.2822 37.4208 20.2891C37.2788 20.2891 37.1639 20.3029 37.1639 20.3235C37.1639 20.3441 37.2653 20.5092 37.387 20.688C38.6913 22.5928 39.8537 25.4811 40.1308 27.5441C40.1714 27.8466 40.2322 28.1148 40.266 28.1492C40.293 28.1767 40.3944 28.1767 40.4822 28.1423C40.5701 28.1011 40.9013 27.9911 41.2189 27.8879C41.5365 27.7916 41.888 27.661 42.0096 27.606C42.1245 27.5509 42.2394 27.5097 42.2664 27.5097C42.2935 27.5097 42.6449 27.3446 43.0436 27.1383C45.6861 25.7836 47.5717 23.8994 48.8152 21.3481C49.8289 19.2645 50.1939 17.0502 49.9033 14.6502C49.6532 12.539 48.7611 10.4004 47.4162 8.70183C47.0107 8.19295 46.1389 7.34711 45.578 6.91388C45.1252 6.57004 44.0574 5.9305 44.0574 6.00615Z" fill=""/>
  <path d="M5.23793 6.36376C4.52831 6.77637 4.07551 7.12708 3.40644 7.801C1.55467 9.65772 0.39901 12.0302 0.094888 14.5815C-0.30385 17.9098 0.55445 20.9218 2.66303 23.59C3.92682 25.1923 5.85969 26.6708 7.66415 27.4134C7.88717 27.5097 8.11695 27.606 8.17102 27.6404C8.22508 27.6679 8.54948 27.7779 8.88063 27.8811C9.21855 27.9842 9.54294 28.1011 9.61053 28.1355C9.79976 28.2386 9.84031 28.1699 9.88086 27.6679C9.94844 26.8427 10.4283 25.1029 10.9216 23.8994C11.3069 22.9504 12.2125 21.2794 12.672 20.6536C12.8883 20.3579 12.8748 20.2891 12.5909 20.2891C12.1043 20.2891 10.7594 19.9866 9.92817 19.684C9.35371 19.4777 8.35349 18.9069 7.80607 18.4737C6.69096 17.5866 5.92727 16.6032 5.42716 15.3998C5.29875 15.0835 5.16359 14.7603 5.1298 14.6846C4.98111 14.3476 4.79188 13.4399 4.68375 12.5597C4.56886 11.652 4.56886 11.5557 4.67699 10.5311C4.81216 9.34139 5.10952 7.95917 5.37309 7.38152C5.42716 7.26462 5.46771 7.14083 5.46771 7.10645C5.46771 7.03081 5.77859 6.26749 5.83266 6.21248C5.88672 6.15059 5.88672 6.05431 5.81914 6.05431C5.79211 6.05431 5.52853 6.19185 5.23793 6.36376Z" fill=""/>
  <path d="M24.5936 12.2846C24.249 12.5734 23.3839 13.1717 21.9106 14.1413C21.5659 14.3614 21.2348 14.5815 21.1672 14.6158C20.8834 14.7809 19.3087 15.8812 18.714 16.3281C16.3553 18.1092 14.7536 19.7528 13.4763 21.7264C12.6788 22.9573 11.9489 24.5802 11.5569 25.9968C11.4758 26.2788 11.3812 26.602 11.3542 26.7189C11.3204 26.8289 11.2731 27.0627 11.2461 27.2346C11.2258 27.4066 11.1582 27.7573 11.1109 28.0255C11.0163 28.5206 10.8271 30.8587 10.8811 30.9068C10.8946 30.9206 12.841 30.9481 15.1997 30.9618L19.4912 30.9825L19.4979 29.8822C19.4979 28.7544 19.5655 28.2868 19.8155 27.5097C20.3765 25.7699 21.816 24.3808 23.6069 23.8444C24.2625 23.6519 25.6547 23.6381 26.2494 23.8169C27.4659 24.1883 28.0268 24.5252 28.8851 25.4054C29.5407 26.0794 29.7705 26.4369 30.2098 27.4753C30.399 27.9154 30.5409 28.9676 30.5409 29.9647V31.0168H31.9128C32.6698 31.0168 34.6229 30.9962 36.2517 30.9687L39.2118 30.9274L39.1712 30.3704C38.9347 27.2071 38.394 25.0822 37.2789 22.9711C35.5826 19.739 32.8455 17.1465 27.7565 13.935C26.8779 13.378 25.5871 12.4841 25.3033 12.2296C25.1411 12.0852 24.9991 11.9683 24.9856 11.9752C24.9789 11.9752 24.7964 12.1196 24.5936 12.2846Z" fill=""/>
  <path d="M24.0192 26.1275C22.9244 26.5263 22.1742 27.2759 21.8295 28.3143C21.7146 28.6512 21.6943 28.9194 21.6808 29.8547L21.6741 30.9825L25.0262 31.0031L28.3783 31.0168V29.9716C28.3783 29.3939 28.3445 28.7819 28.3039 28.6169C28.0606 27.5235 27.0266 26.4301 25.925 26.1069C25.4182 25.9556 24.4652 25.9693 24.0192 26.1275Z" fill=""/>
  <path d="M10.8067 32.5022C10.8 32.6122 10.6851 33.5131 10.604 34.077C10.4958 34.8609 10.1985 36.4082 9.90787 37.7216C9.74567 38.4575 9.06985 40.8368 8.91441 41.2288C8.74545 41.6551 7.95473 43.8626 7.9277 43.9795C7.90067 44.0895 8.02907 44.227 8.54946 44.6328C9.39424 45.2861 11.1244 46.6201 11.3744 46.7989C11.4825 46.8746 11.7056 47.0465 11.8813 47.184C12.1584 47.3972 13.679 48.5044 14.6454 49.192C14.8346 49.3296 15.1523 49.5565 15.3348 49.6872C16.5242 50.5399 18.8693 52.1078 20.9103 53.4212C21.1739 53.5931 21.4578 53.7788 21.5524 53.8407C21.647 53.8957 21.7686 53.9782 21.8362 54.0195C22.1944 54.2396 22.7351 54.5834 22.8702 54.6728C23.2149 54.8997 24.4719 55.6768 24.749 55.835L25.0329 56L25.8439 55.498C28.6012 53.7926 30.5949 52.5273 31.7911 51.7158C32.1628 51.4614 32.8184 51.0212 33.2442 50.7324C33.6699 50.4436 34.2376 50.0516 34.4944 49.8591C34.758 49.6734 35.0148 49.4946 35.0689 49.4671C35.123 49.4396 35.3595 49.2814 35.5893 49.1095C35.8191 48.9376 36.2651 48.6075 36.5692 48.3806C38.2047 47.1909 41.7663 44.4127 41.9894 44.1583C42.111 44.0207 42.111 44.007 41.9691 43.6563C41.5906 42.7279 41.469 42.3909 41.0567 41.1256C40.5363 39.5234 40.2728 38.5469 39.8673 36.6558C39.6105 35.4592 39.3807 34.0151 39.2793 32.9217L39.2388 32.4472L37.5762 32.4953C36.6639 32.516 35.4136 32.5641 34.7986 32.6054C34.1836 32.6397 33.5415 32.6672 33.3658 32.6672H33.0482L33.0279 37.1165L33.0009 41.5726L32.8454 42.0196C32.5683 42.7829 32.0615 43.45 31.4262 43.8901C30.5273 44.509 25.141 47.7961 25.0261 47.7961C24.918 47.7961 24.2827 47.4453 23.715 47.074C23.4717 46.9158 22.9446 46.5858 22.5323 46.3382C22.1268 46.0906 21.3361 45.6024 20.7752 45.2517C20.221 44.901 19.5181 44.4608 19.214 44.2752C18.0651 43.5669 17.4906 42.9342 17.1527 41.999L16.9973 41.5726L16.9703 37.1302L16.95 32.6879L15.3821 32.6122C12.9221 32.4885 10.8067 32.4403 10.8067 32.5022Z" fill=""/>
  <path d="M24.4922 34.6546C24.4719 34.689 24.3706 34.7371 24.2692 34.7647C24.0462 34.8128 23.5123 35.3492 23.3433 35.6861C23.269 35.8305 23.2284 36.085 23.2284 36.3738C23.2217 36.9377 23.4379 37.4122 23.8434 37.7423C24.2286 38.0586 24.2219 38.1824 23.7556 40.0941C23.492 41.1738 23.4244 41.5314 23.465 41.6345C23.5055 41.7308 23.6745 41.7445 24.9991 41.7445C26.3034 41.7445 26.4927 41.7308 26.5332 41.6345C26.567 41.5314 26.3575 40.3623 26.2156 39.8534C26.0872 39.4202 25.8777 38.3749 25.8777 38.1893C25.8777 38.0449 25.9588 37.9142 26.1818 37.701C26.6076 37.2953 26.7562 36.9652 26.7562 36.4288C26.7562 35.6586 26.3507 35.0397 25.6546 34.7371C25.31 34.5859 24.5666 34.5377 24.4922 34.6546Z" fill=""/>
</svg>